<?xml version="1.0" encoding="UTF-8"?>
      <mxfile host="codeviz.app" modified="2025-08-29T01:26:56.946Z" agent="CodeViz Exporter" version="14.6.5" type="device">
        <diagram id="codeviz-diagram" name="System Diagram">
          <mxGraphModel dx="1000" dy="1000" grid="1" gridSize="10" guides="1" tooltips="1" connect="1" arrows="1" fold="1" page="1" pageScale="1" pageWidth="1169" pageHeight="827" math="0" shadow="0">
            <root>
              <mxCell id="0"/>
              <mxCell id="1" parent="0"/>
              <mxCell id="1o" value="" style="html=1;whiteSpace=wrap;container=1;fillColor=#dae8fc;strokeColor=#6c8ebf;dashed=1;fillOpacity=20;strokeWidth=2;containerType=none;recursiveResize=0;movable=1;resizable=1;autosize=0;dropTarget=0" vertex="1" parent="1">
                <mxGeometry x="22" y="997" width="240" height="380" as="geometry"/>
              </mxCell>
              <mxCell id="1_label" value="Main App Backend System&lt;br&gt;Go, Caddy" style="edgeLabel;html=1;align=center;verticalAlign=middle;resizable=0;labelBackgroundColor=white;spacing=5" vertex="1" parent="1">
                <mxGeometry x="30" y="1005" width="164" height="24" as="geometry"/>
              </mxCell>
<mxCell id="2" value="" style="html=1;whiteSpace=wrap;container=1;fillColor=#dae8fc;strokeColor=#6c8ebf;dashed=1;fillOpacity=20;strokeWidth=2;containerType=none;recursiveResize=0;movable=1;resizable=1;autosize=0;dropTarget=0" vertex="1" parent="1">
                <mxGeometry x="632" y="287" width="240" height="380" as="geometry"/>
              </mxCell>
              <mxCell id="2_label" value="Documentation Server System&lt;br&gt;Python Flask" style="edgeLabel;html=1;align=center;verticalAlign=middle;resizable=0;labelBackgroundColor=white;spacing=5" vertex="1" parent="1">
                <mxGeometry x="640" y="295" width="164" height="24" as="geometry"/>
              </mxCell>
<mxCell id="3" value="" style="html=1;whiteSpace=wrap;container=1;fillColor=#dae8fc;strokeColor=#6c8ebf;dashed=1;fillOpacity=20;strokeWidth=2;containerType=none;recursiveResize=0;movable=1;resizable=1;autosize=0;dropTarget=0" vertex="1" parent="1">
                <mxGeometry x="242" y="447" width="390" height="220" as="geometry"/>
              </mxCell>
              <mxCell id="3_label" value="Frontend System (Web)&lt;br&gt;Flutter" style="edgeLabel;html=1;align=center;verticalAlign=middle;resizable=0;labelBackgroundColor=white;spacing=5" vertex="1" parent="1">
                <mxGeometry x="250" y="455" width="314" height="24" as="geometry"/>
              </mxCell>
<mxCell id="4" value="" style="html=1;whiteSpace=wrap;container=1;fillColor=#dae8fc;strokeColor=#6c8ebf;dashed=1;fillOpacity=20;strokeWidth=2;containerType=none;recursiveResize=0;movable=1;resizable=1;autosize=0;dropTarget=0" vertex="1" parent="1">
                <mxGeometry x="872" y="287" width="320" height="540" as="geometry"/>
              </mxCell>
              <mxCell id="4_label" value="Monitoring System&lt;br&gt;Prometheus, Grafana" style="edgeLabel;html=1;align=center;verticalAlign=middle;resizable=0;labelBackgroundColor=white;spacing=5" vertex="1" parent="1">
                <mxGeometry x="880" y="295" width="244" height="24" as="geometry"/>
              </mxCell>
<mxCell id="5" value="" style="html=1;whiteSpace=wrap;container=1;fillColor=#dae8fc;strokeColor=#6c8ebf;dashed=1;fillOpacity=20;strokeWidth=2;containerType=none;recursiveResize=0;movable=1;resizable=1;autosize=0;dropTarget=0" vertex="1" parent="1">
                <mxGeometry x="555" y="997" width="543" height="380" as="geometry"/>
              </mxCell>
              <mxCell id="5_label" value="Backend System&lt;br&gt;.NET Core, Python" style="edgeLabel;html=1;align=center;verticalAlign=middle;resizable=0;labelBackgroundColor=white;spacing=5" vertex="1" parent="1">
                <mxGeometry x="563" y="1005" width="467" height="24" as="geometry"/>
              </mxCell>
              <mxCell id="16" value="Main App (Cross-Platform)&lt;br&gt;Flutter/Dart" style="rounded=1;whiteSpace=wrap;html=1;fillColor=#f5f5f5" vertex="1" parent="1">
                    <mxGeometry x="72" y="570.3333333333333" width="120" height="60" as="geometry"/>
                  </mxCell>
<mxCell id="21" value="Database&lt;br&gt;SQL Server" style="rounded=1;whiteSpace=wrap;html=1;fillColor=#f5f5f5" vertex="1" parent="1">
                    <mxGeometry x="551" y="1532" width="120" height="60" as="geometry"/>
                  </mxCell>
<mxCell id="22" value="Jaeger&lt;br&gt;Tracing" style="rounded=1;whiteSpace=wrap;html=1;fillColor=#f5f5f5" vertex="1" parent="1">
                    <mxGeometry x="900" y="1532" width="120" height="60" as="geometry"/>
                  </mxCell>
<mxCell id="6" value="User&lt;br&gt;External Actor" style="rounded=1;whiteSpace=wrap;html=1;fillColor=#f5f5f5" vertex="1" parent="1">
                    <mxGeometry x="339.5" y="12" width="120" height="60" as="geometry"/>
                  </mxCell>
<mxCell id="10" value="Metrics Proxy&lt;br&gt;Python Flask" style="rounded=1;whiteSpace=wrap;html=1;fillColor=#f5f5f5" vertex="1" parent="5">
                    <mxGeometry x="212" y="200" width="120" height="60" as="geometry"/>
                  </mxCell>
<mxCell id="11" value="Prometheus&lt;br&gt;Monitoring" style="rounded=1;whiteSpace=wrap;html=1;fillColor=#f5f5f5" vertex="1" parent="4">
                    <mxGeometry x="40" y="280" width="120" height="60" as="geometry"/>
                  </mxCell>
<mxCell id="12" value="Alertmanager&lt;br&gt;Alerting" style="rounded=1;whiteSpace=wrap;html=1;fillColor=#f5f5f5" vertex="1" parent="4">
                    <mxGeometry x="70" y="440" width="120" height="60" as="geometry"/>
                  </mxCell>
<mxCell id="13" value="Grafana&lt;br&gt;Visualization" style="rounded=1;whiteSpace=wrap;html=1;fillColor=#f5f5f5" vertex="1" parent="4">
                    <mxGeometry x="120" y="120" width="120" height="60" as="geometry"/>
                  </mxCell>
<mxCell id="14" value="Web Application&lt;br&gt;Flutter/Dart" style="rounded=1;whiteSpace=wrap;html=1;fillColor=#f5f5f5" vertex="1" parent="3">
                    <mxGeometry x="40" y="120" width="120" height="60" as="geometry"/>
                  </mxCell>
<mxCell id="15" value="API Integration&lt;br&gt;Flutter/Dart" style="rounded=1;whiteSpace=wrap;html=1;fillColor=#f5f5f5" vertex="1" parent="3">
                    <mxGeometry x="190" y="120" width="120" height="60" as="geometry"/>
                  </mxCell>
<mxCell id="17" value="Documentation Server App&lt;br&gt;Python Flask" style="rounded=1;whiteSpace=wrap;html=1;fillColor=#f5f5f5" vertex="1" parent="2">
                    <mxGeometry x="40" y="120" width="120" height="60" as="geometry"/>
                  </mxCell>
<mxCell id="18" value="Documentation Content&lt;br&gt;Markdown" style="rounded=1;whiteSpace=wrap;html=1;fillColor=#f5f5f5" vertex="1" parent="2">
                    <mxGeometry x="40" y="280" width="120" height="60" as="geometry"/>
                  </mxCell>
<mxCell id="19" value="Caddy Reverse Proxy&lt;br&gt;Caddy" style="rounded=1;whiteSpace=wrap;html=1;fillColor=#f5f5f5" vertex="1" parent="1">
                    <mxGeometry x="40" y="120" width="120" height="60" as="geometry"/>
                  </mxCell>
<mxCell id="20" value="Go Server&lt;br&gt;Go" style="rounded=1;whiteSpace=wrap;html=1;fillColor=#f5f5f5" vertex="1" parent="1">
                    <mxGeometry x="40" y="280" width="120" height="60" as="geometry"/>
                  </mxCell>
<mxCell id="7" value="CorporatePortalApi&lt;br&gt;ASP.NET Core" style="rounded=1;whiteSpace=wrap;html=1;fillColor=#f5f5f5" vertex="1" parent="5">
                    <mxGeometry x="50" y="280" width="120" height="60" as="geometry"/>
                  </mxCell>
<mxCell id="8" value="Alert Webhook&lt;br&gt;Python Flask" style="rounded=1;whiteSpace=wrap;html=1;fillColor=#f5f5f5" vertex="1" parent="5">
                    <mxGeometry x="353" y="120" width="120" height="60" as="geometry"/>
                  </mxCell>
<mxCell id="9" value="Load Tester&lt;br&gt;Python Flask" style="rounded=1;whiteSpace=wrap;html=1;fillColor=#f5f5f5" vertex="1" parent="5">
                    <mxGeometry x="62" y="120" width="120" height="60" as="geometry"/>
                  </mxCell>
              <mxCell id="edge-6" style="edgeStyle=orthogonalEdgeStyle;rounded=1;orthogonalLoop=1;jettySize=auto;html=1;strokeColor=#808080;strokeWidth=2;jumpStyle=arc;jumpSize=10;spacing=15;labelBackgroundColor=white;labelBorderColor=none" edge="1" parent="1" source="16" target="1">
                  <mxGeometry relative="1" as="geometry"/>
                </mxCell>
                <mxCell id="edge-6_label" value="uses" style="edgeLabel;html=1;align=center;verticalAlign=middle;resizable=0;points=[];" vertex="1" connectable="0" parent="edge-6">
                  <mxGeometry x="-0.2" y="10" relative="1" as="geometry">
                    <mxPoint as="offset"/>
                  </mxGeometry>
                </mxCell>
<mxCell id="edge-5" style="edgeStyle=orthogonalEdgeStyle;rounded=1;orthogonalLoop=1;jettySize=auto;html=1;strokeColor=#808080;strokeWidth=2;jumpStyle=arc;jumpSize=10;spacing=15;labelBackgroundColor=white;labelBorderColor=none" edge="1" parent="1" source="16" target="7">
                  <mxGeometry relative="1" as="geometry"/>
                </mxCell>
                <mxCell id="edge-5_label" value="uses REST API" style="edgeLabel;html=1;align=center;verticalAlign=middle;resizable=0;points=[];" vertex="1" connectable="0" parent="edge-5">
                  <mxGeometry x="-0.2" y="10" relative="1" as="geometry">
                    <mxPoint as="offset"/>
                  </mxGeometry>
                </mxCell>
<mxCell id="edge-3" style="edgeStyle=orthogonalEdgeStyle;rounded=1;orthogonalLoop=1;jettySize=auto;html=1;strokeColor=#808080;strokeWidth=2;jumpStyle=arc;jumpSize=10;spacing=15;labelBackgroundColor=white;labelBorderColor=none" edge="1" parent="1" source="6" target="2">
                  <mxGeometry relative="1" as="geometry"/>
                </mxCell>
                <mxCell id="edge-3_label" value="accesses" style="edgeLabel;html=1;align=center;verticalAlign=middle;resizable=0;points=[];" vertex="1" connectable="0" parent="edge-3">
                  <mxGeometry x="-0.2" y="10" relative="1" as="geometry">
                    <mxPoint as="offset"/>
                  </mxGeometry>
                </mxCell>
<mxCell id="edge-1" style="edgeStyle=orthogonalEdgeStyle;rounded=1;orthogonalLoop=1;jettySize=auto;html=1;strokeColor=#808080;strokeWidth=2;jumpStyle=arc;jumpSize=10;spacing=15;labelBackgroundColor=white;labelBorderColor=none" edge="1" parent="1" source="6" target="3">
                  <mxGeometry relative="1" as="geometry"/>
                </mxCell>
                <mxCell id="edge-1_label" value="interacts with" style="edgeLabel;html=1;align=center;verticalAlign=middle;resizable=0;points=[];" vertex="1" connectable="0" parent="edge-1">
                  <mxGeometry x="-0.2" y="10" relative="1" as="geometry">
                    <mxPoint as="offset"/>
                  </mxGeometry>
                </mxCell>
<mxCell id="edge-2" style="edgeStyle=orthogonalEdgeStyle;rounded=1;orthogonalLoop=1;jettySize=auto;html=1;strokeColor=#808080;strokeWidth=2;jumpStyle=arc;jumpSize=10;spacing=15;labelBackgroundColor=white;labelBorderColor=none" edge="1" parent="1" source="6" target="16">
                  <mxGeometry relative="1" as="geometry"/>
                </mxCell>
                <mxCell id="edge-2_label" value="interacts with" style="edgeLabel;html=1;align=center;verticalAlign=middle;resizable=0;points=[];" vertex="1" connectable="0" parent="edge-2">
                  <mxGeometry x="-0.2" y="10" relative="1" as="geometry">
                    <mxPoint as="offset"/>
                  </mxGeometry>
                </mxCell>
<mxCell id="edge-4" style="edgeStyle=orthogonalEdgeStyle;rounded=1;orthogonalLoop=1;jettySize=auto;html=1;strokeColor=#808080;strokeWidth=2;jumpStyle=arc;jumpSize=10;spacing=15;labelBackgroundColor=white;labelBorderColor=none" edge="1" parent="1" source="3" target="7">
                  <mxGeometry relative="1" as="geometry"/>
                </mxCell>
                <mxCell id="edge-4_label" value="uses REST API" style="edgeLabel;html=1;align=center;verticalAlign=middle;resizable=0;points=[];" vertex="1" connectable="0" parent="edge-4">
                  <mxGeometry x="-0.2" y="10" relative="1" as="geometry">
                    <mxPoint as="offset"/>
                  </mxGeometry>
                </mxCell>
<mxCell id="edge-16" style="edgeStyle=orthogonalEdgeStyle;rounded=1;orthogonalLoop=1;jettySize=auto;html=1;strokeColor=#808080;strokeWidth=2;jumpStyle=arc;jumpSize=10;spacing=15;labelBackgroundColor=white;labelBorderColor=none" edge="1" parent="1" source="9" target="7">
                  <mxGeometry relative="1" as="geometry"/>
                </mxCell>
                <mxCell id="edge-16_label" value="generates load for" style="edgeLabel;html=1;align=center;verticalAlign=middle;resizable=0;points=[];" vertex="1" connectable="0" parent="edge-16">
                  <mxGeometry x="-0.2" y="10" relative="1" as="geometry">
                    <mxPoint as="offset"/>
                  </mxGeometry>
                </mxCell>
<mxCell id="edge-10" style="edgeStyle=orthogonalEdgeStyle;rounded=1;orthogonalLoop=1;jettySize=auto;html=1;strokeColor=#808080;strokeWidth=2;jumpStyle=arc;jumpSize=10;spacing=15;labelBackgroundColor=white;labelBorderColor=none" edge="1" parent="1" source="11" target="7">
                  <mxGeometry relative="1" as="geometry"/>
                </mxCell>
                <mxCell id="edge-10_label" value="scrapes metrics from" style="edgeLabel;html=1;align=center;verticalAlign=middle;resizable=0;points=[];" vertex="1" connectable="0" parent="edge-10">
                  <mxGeometry x="-0.2" y="10" relative="1" as="geometry">
                    <mxPoint as="offset"/>
                  </mxGeometry>
                </mxCell>
<mxCell id="edge-11" style="edgeStyle=orthogonalEdgeStyle;rounded=1;orthogonalLoop=1;jettySize=auto;html=1;strokeColor=#808080;strokeWidth=2;jumpStyle=arc;jumpSize=10;spacing=15;labelBackgroundColor=white;labelBorderColor=none" edge="1" parent="1" source="11" target="10">
                  <mxGeometry relative="1" as="geometry"/>
                </mxCell>
                <mxCell id="edge-11_label" value="scrapes metrics from" style="edgeLabel;html=1;align=center;verticalAlign=middle;resizable=0;points=[];" vertex="1" connectable="0" parent="edge-11">
                  <mxGeometry x="-0.2" y="10" relative="1" as="geometry">
                    <mxPoint as="offset"/>
                  </mxGeometry>
                </mxCell>
<mxCell id="edge-12" style="edgeStyle=orthogonalEdgeStyle;rounded=1;orthogonalLoop=1;jettySize=auto;html=1;strokeColor=#808080;strokeWidth=2;jumpStyle=arc;jumpSize=10;spacing=15;labelBackgroundColor=white;labelBorderColor=none" edge="1" parent="1" source="11" target="12">
                  <mxGeometry relative="1" as="geometry"/>
                </mxCell>
                <mxCell id="edge-12_label" value="sends alerts to" style="edgeLabel;html=1;align=center;verticalAlign=middle;resizable=0;points=[];" vertex="1" connectable="0" parent="edge-12">
                  <mxGeometry x="-0.2" y="10" relative="1" as="geometry">
                    <mxPoint as="offset"/>
                  </mxGeometry>
                </mxCell>
<mxCell id="edge-13" style="edgeStyle=orthogonalEdgeStyle;rounded=1;orthogonalLoop=1;jettySize=auto;html=1;strokeColor=#808080;strokeWidth=2;jumpStyle=arc;jumpSize=10;spacing=15;labelBackgroundColor=white;labelBorderColor=none" edge="1" parent="1" source="12" target="8">
                  <mxGeometry relative="1" as="geometry"/>
                </mxCell>
                <mxCell id="edge-13_label" value="sends notifications to" style="edgeLabel;html=1;align=center;verticalAlign=middle;resizable=0;points=[];" vertex="1" connectable="0" parent="edge-13">
                  <mxGeometry x="-0.2" y="10" relative="1" as="geometry">
                    <mxPoint as="offset"/>
                  </mxGeometry>
                </mxCell>
<mxCell id="edge-8" style="edgeStyle=orthogonalEdgeStyle;rounded=1;orthogonalLoop=1;jettySize=auto;html=1;strokeColor=#808080;strokeWidth=2;jumpStyle=arc;jumpSize=10;spacing=15;labelBackgroundColor=white;labelBorderColor=none" edge="1" parent="1" source="7" target="11">
                  <mxGeometry relative="1" as="geometry"/>
                </mxCell>
                <mxCell id="edge-8_label" value="sends metrics to" style="edgeLabel;html=1;align=center;verticalAlign=middle;resizable=0;points=[];" vertex="1" connectable="0" parent="edge-8">
                  <mxGeometry x="-0.2" y="10" relative="1" as="geometry">
                    <mxPoint as="offset"/>
                  </mxGeometry>
                </mxCell>
<mxCell id="edge-7" style="edgeStyle=orthogonalEdgeStyle;rounded=1;orthogonalLoop=1;jettySize=auto;html=1;strokeColor=#808080;strokeWidth=2;jumpStyle=arc;jumpSize=10;spacing=15;labelBackgroundColor=white;labelBorderColor=none" edge="1" parent="1" source="7" target="21">
                  <mxGeometry relative="1" as="geometry"/>
                </mxCell>
                <mxCell id="edge-7_label" value="queries/persists" style="edgeLabel;html=1;align=center;verticalAlign=middle;resizable=0;points=[];" vertex="1" connectable="0" parent="edge-7">
                  <mxGeometry x="-0.2" y="10" relative="1" as="geometry">
                    <mxPoint as="offset"/>
                  </mxGeometry>
                </mxCell>
<mxCell id="edge-9" style="edgeStyle=orthogonalEdgeStyle;rounded=1;orthogonalLoop=1;jettySize=auto;html=1;strokeColor=#808080;strokeWidth=2;jumpStyle=arc;jumpSize=10;spacing=15;labelBackgroundColor=white;labelBorderColor=none" edge="1" parent="1" source="7" target="22">
                  <mxGeometry relative="1" as="geometry"/>
                </mxCell>
                <mxCell id="edge-9_label" value="sends traces to" style="edgeLabel;html=1;align=center;verticalAlign=middle;resizable=0;points=[];" vertex="1" connectable="0" parent="edge-9">
                  <mxGeometry x="-0.2" y="10" relative="1" as="geometry">
                    <mxPoint as="offset"/>
                  </mxGeometry>
                </mxCell>
<mxCell id="edge-14" style="edgeStyle=orthogonalEdgeStyle;rounded=1;orthogonalLoop=1;jettySize=auto;html=1;strokeColor=#808080;strokeWidth=2;jumpStyle=arc;jumpSize=10;spacing=15;labelBackgroundColor=white;labelBorderColor=none" edge="1" parent="1" source="13" target="11">
                  <mxGeometry relative="1" as="geometry"/>
                </mxCell>
                <mxCell id="edge-14_label" value="queries metrics from" style="edgeLabel;html=1;align=center;verticalAlign=middle;resizable=0;points=[];" vertex="1" connectable="0" parent="edge-14">
                  <mxGeometry x="-0.2" y="10" relative="1" as="geometry">
                    <mxPoint as="offset"/>
                  </mxGeometry>
                </mxCell>
<mxCell id="edge-15" style="edgeStyle=orthogonalEdgeStyle;rounded=1;orthogonalLoop=1;jettySize=auto;html=1;strokeColor=#808080;strokeWidth=2;jumpStyle=arc;jumpSize=10;spacing=15;labelBackgroundColor=white;labelBorderColor=none" edge="1" parent="1" source="13" target="22">
                  <mxGeometry relative="1" as="geometry"/>
                </mxCell>
                <mxCell id="edge-15_label" value="queries traces from" style="edgeLabel;html=1;align=center;verticalAlign=middle;resizable=0;points=[];" vertex="1" connectable="0" parent="edge-15">
                  <mxGeometry x="-0.2" y="10" relative="1" as="geometry">
                    <mxPoint as="offset"/>
                  </mxGeometry>
                </mxCell>
<mxCell id="edge-17" style="edgeStyle=orthogonalEdgeStyle;rounded=1;orthogonalLoop=1;jettySize=auto;html=1;strokeColor=#808080;strokeWidth=2;jumpStyle=arc;jumpSize=10;spacing=15;labelBackgroundColor=white;labelBorderColor=none" edge="1" parent="1" source="17" target="18">
                  <mxGeometry relative="1" as="geometry"/>
                </mxCell>
                <mxCell id="edge-17_label" value="serves" style="edgeLabel;html=1;align=center;verticalAlign=middle;resizable=0;points=[];" vertex="1" connectable="0" parent="edge-17">
                  <mxGeometry x="-0.2" y="10" relative="1" as="geometry">
                    <mxPoint as="offset"/>
                  </mxGeometry>
                </mxCell>
<mxCell id="edge-18" style="edgeStyle=orthogonalEdgeStyle;rounded=1;orthogonalLoop=1;jettySize=auto;html=1;strokeColor=#808080;strokeWidth=2;jumpStyle=arc;jumpSize=10;spacing=15;labelBackgroundColor=white;labelBorderColor=none" edge="1" parent="1" source="19" target="20">
                  <mxGeometry relative="1" as="geometry"/>
                </mxCell>
                <mxCell id="edge-18_label" value="routes to" style="edgeLabel;html=1;align=center;verticalAlign=middle;resizable=0;points=[];" vertex="1" connectable="0" parent="edge-18">
                  <mxGeometry x="-0.2" y="10" relative="1" as="geometry">
                    <mxPoint as="offset"/>
                  </mxGeometry>
                </mxCell>
            </root>
          </mxGraphModel>
        </diagram>
      </mxfile>